<svg xmlns="http://www.w3.org/2000/svg" viewBox="0 0 138.79 25.06"><defs><style>.cls-1{fill:#fff;}</style></defs><title>html-css</title><g id="Lag_2" data-name="Lag 2"><g id="Lag_1-2" data-name="Lag 1"><path class="cls-1" d="M26.33,0H3.39A3.39,3.39,0,0,0,0,3.39V21.66a3.4,3.4,0,0,0,3.39,3.4H26.33a3.4,3.4,0,0,0,3.39-3.4V3.39A3.39,3.39,0,0,0,26.33,0Zm-5,2.27a1.17,1.17,0,1,1-1.17,1.17A1.16,1.16,0,0,1,21.33,2.27Zm-3.73,0a1.17,1.17,0,1,1-1.17,1.17A1.16,1.16,0,0,1,17.6,2.27Zm8.62,19.78a.67.67,0,0,1-.67.68H4.17a.67.67,0,0,1-.67-.68V7.63A.67.67,0,0,1,4.17,7H25.55a.67.67,0,0,1,.67.67ZM25.06,4.6a1.17,1.17,0,1,1,1.16-1.16A1.17,1.17,0,0,1,25.06,4.6Z"/><path class="cls-1" d="M5.37,14.82l.24-.26,4-4c.15-.16.24-.17.39,0,.34.36.68.7,1,1,.17.16.17.26,0,.42-.86.84-1.69,1.69-2.54,2.53-.25.25-.24.3,0,.56.85.85,1.69,1.7,2.54,2.54.14.13.15.23,0,.37-.36.35-.71.72-1.07,1.08-.11.11-.2.16-.33,0L5.46,15A.92.92,0,0,1,5.37,14.82Z"/><path class="cls-1" d="M20,10.41c.06.05.13.09.18.14l4.07,4.08c.15.15.13.24,0,.38-1.36,1.35-2.71,2.71-4.07,4.08-.11.12-.2.15-.33,0q-.55-.57-1.11-1.11c-.14-.14-.1-.24,0-.37.85-.84,1.7-1.7,2.55-2.55.24-.24.24-.29,0-.54L18.78,12c-.11-.11-.16-.21,0-.34l1.14-1.13A.65.65,0,0,1,20,10.41Z"/><path class="cls-1" d="M17.46,11l-.75,2.49c-.25.86-.5,1.73-.76,2.59-.19.65-.38,1.29-.58,1.94-.09.33-.2.65-.28,1s-.13.36-.45.26a5.74,5.74,0,0,0-.91-.22c-.25,0-.31-.13-.24-.36l.42-1.36c.2-.68.4-1.37.61-2.05s.48-1.65.73-2.48c.2-.67.4-1.33.61-2,0-.08.15-.2.21-.19.44.09.88.21,1.32.33C17.41,11,17.43,11,17.46,11Z"/><path class="cls-1" d="M41.39,20.73c-.48,0-.69-.21-.69-.69V7.6c0-.48.21-.69.69-.69h3c.48,0,.7.21.7.69v4.17h3.2V7.6c0-.48.21-.69.69-.69h3c.48,0,.69.21.69.69V20c0,.48-.21.69-.69.69H49c-.48,0-.69-.21-.69-.69V15.78h-3.2V20c0,.48-.22.69-.7.69Z"/><path class="cls-1" d="M58.68,20.73c-.48,0-.69-.21-.69-.69V10.61H55.17c-.48,0-.69-.21-.69-.69V7.6c0-.48.21-.69.69-.69H65.31c.48,0,.69.21.69.69V9.92c0,.48-.21.69-.69.69H62.49V20c0,.48-.22.69-.7.69Z"/><path class="cls-1" d="M68.55,20.73c-.48,0-.69-.21-.69-.69V7.6c0-.48.21-.69.69-.69h3.09a.9.9,0,0,1,.88.58l1.73,3.12c.14.23.19.33.35.33h.17c.15,0,.21-.1.35-.33l1.7-3.12a.9.9,0,0,1,.89-.58h3.11c.48,0,.69.21.69.69V20c0,.48-.21.69-.69.69h-3c-.5,0-.69-.21-.69-.69V13.28L76,15.38A1,1,0,0,1,75,16h-.77a1,1,0,0,1-1-.61l-1.13-2.1V20c0,.48-.21.69-.69.69Z"/><path class="cls-1" d="M84.85,20.73c-.48,0-.69-.21-.69-.69V7.6c0-.48.21-.69.69-.69h3c.48,0,.69.21.69.69v9.5h2.63V14c0-.48.22-.69.7-.69h2.78c.48,0,.69.21.69.69v6c0,.48-.21.69-.69.69Z"/><path class="cls-1" d="M98.57,5.87c.06-.48.21-.69.69-.69h2.79c.48,0,.75.21.69.69l-2.31,15.9c-.05.48-.21.69-.69.69H97c-.48,0-.75-.21-.69-.69Z"/><path class="cls-1" d="M108.48,20.73c-3.23,0-4.72-1.25-4.72-3.92v-6c0-2.68,1.49-3.93,4.72-3.93h4.68c.48,0,.69.21.69.69V9.92c0,.48-.21.69-.69.69H109.3c-.8,0-1.17.31-1.17,1v4.57c0,.64.37.92,1.17.92h3.86c.48,0,.69.22.69.7V20c0,.48-.21.69-.69.69Z"/><path class="cls-1" d="M116.37,20.73c-.48,0-.69-.21-.69-.69V17.79c0-.48.21-.69.69-.69h5.16a.5.5,0,0,0,.5-.55c0-.45-.17-.62-.5-.66l-2.88-.4c-1.8-.27-3-1-3-3.19v-2c0-2.19,1.47-3.38,4-3.38H125c.48,0,.7.21.7.69V9.88a.61.61,0,0,1-.7.7h-4.47a.51.51,0,0,0-.52.57.57.57,0,0,0,.52.62l2.86.38c1.81.27,3,1,3,3.19v2c0,2.19-1.5,3.38-4,3.38Z"/><path class="cls-1" d="M128.75,20.73c-.48,0-.69-.21-.69-.69V17.79c0-.48.21-.69.69-.69h5.16a.5.5,0,0,0,.5-.55c0-.45-.17-.62-.5-.66l-2.88-.4c-1.8-.27-3-1-3-3.19v-2c0-2.19,1.47-3.38,4-3.38h5.37c.48,0,.7.21.7.69V9.88a.61.61,0,0,1-.7.7h-4.47a.51.51,0,0,0-.52.57.57.57,0,0,0,.52.62l2.86.38c1.81.27,3,1,3,3.19v2c0,2.19-1.5,3.38-4,3.38Z"/></g></g></svg>