<svg xmlns="http://www.w3.org/2000/svg" viewBox="0 0 953.95 181.07"><title>javascript</title><g id="Lag_2" data-name="Lag 2"><g id="Lag_1-2" data-name="Lag 1"><path d="M181.06,37v0c0-.1,0,0,0,0a5.34,5.34,0,0,0-1.56-3.67L147.69,1.55A5.45,5.45,0,0,0,143.94,0H58.71A15.93,15.93,0,0,0,42.79,15.91V53.4H15.91A15.93,15.93,0,0,0,0,69.32V133a15.93,15.93,0,0,0,15.91,15.92H42.79v16.26a15.94,15.94,0,0,0,15.92,15.92H165.15a15.94,15.94,0,0,0,15.92-15.92v-128S181.06,37.05,181.06,37ZM149.24,18.11,163,31.83H149.24ZM15.91,138.28a5.31,5.31,0,0,1-5.3-5.31V69.32A5.31,5.31,0,0,1,15.91,64H122.72a5.31,5.31,0,0,1,5.3,5.31V133a5.31,5.31,0,0,1-5.3,5.31Zm154.55,26.87a5.31,5.31,0,0,1-5.31,5.31H58.71a5.31,5.31,0,0,1-5.31-5.31V148.89h69.32A15.93,15.93,0,0,0,138.63,133V69.32A15.93,15.93,0,0,0,122.72,53.4H53.4V15.91a5.31,5.31,0,0,1,5.31-5.3h79.92V37.13a5.31,5.31,0,0,0,5.31,5.31h26.52Z"/><path d="M90.53,95.84a5.31,5.31,0,1,1,3.76-9.06,5.3,5.3,0,0,0,7.5-7.5,15.92,15.92,0,1,0-11.26,27.17,5.3,5.3,0,1,1-3.75,9,5.31,5.31,0,0,0-7.5,7.51A15.92,15.92,0,1,0,90.53,95.84Z"/><path d="M58.71,74.62a5.31,5.31,0,0,0-5.31,5.31v31.82a5.31,5.31,0,1,1-10.61,0,5.31,5.31,0,0,0-10.61,0,15.92,15.92,0,1,0,31.83,0V79.93A5.3,5.3,0,0,0,58.71,74.62Z"/><path d="M251.15,143.49c-26.64,0-33.15-9.37-33.15-23.32V101.65c0-3,1.25-4.11,4.11-4.11h16.58c2.85,0,4.11,1.14,4.11,4.11V115.6c0,3.08,1,5.37,8.12,5.37,6.63,0,7.54-2.29,7.54-5.37v-52c0-2.86,1.26-4.12,4.12-4.12h17.94c2.86,0,4.12,1.26,4.12,4.12v56.58C284.64,134.12,278,143.49,251.15,143.49Z"/><path d="M315.05,141.77H298.24c-2.85,0-4.11-1.25-4.11-4.11V107.48c0-4.57,1.37-10.29,4.46-18.29l9.94-25.95c.92-2.63,2.74-3.77,5.83-3.77h30.75c3,0,4.8,1.14,5.72,3.77l9.94,25.95c3.09,8,4.46,13.72,4.46,18.29v30.18c0,2.86-1.26,4.11-4.12,4.11H343.85c-3.08,0-4.46-1.25-4.46-4.11v-16H319.16v16C319.16,140.52,317.9,141.77,315.05,141.77Zm5.25-40.92h17.95l-5.37-17.37c-.57-1.38-1.26-2-2.17-2h-2.86c-.92,0-1.6.57-2.17,2Z"/><path d="M393.12,141.77c-3,0-4.68-.91-5.83-3.77l-11.2-28c-2.74-6.86-3.66-9-3.66-16.24V63.59c0-2.86,1.26-4.12,4.12-4.12h18.17c2.86,0,4.46,1.26,4.46,4.12V95.14a14.18,14.18,0,0,0,.92,4.68l5.37,16c.46,1.48.91,1.94,2.17,1.94h1.26c1.26,0-1.29-.46-.83-1.94l8.37-16.12a14.28,14.28,0,0,0,.92-4.69V63.59c0-2.86,1.25-4.12,4.11-4.12h17.95c3,0,4.12,1.26,4.12,4.12V93.76c0,7.21-.92,9.38-3.66,16.24l-11.21,28c-1.14,2.86-2.85,3.77-5.83,3.77Z"/><path d="M471.66,141.77H454.85c-2.85,0-4.11-1.25-4.11-4.11V107.48c0-4.57,1.37-10.29,4.46-18.29l9.94-25.95c.92-2.63,2.75-3.77,5.83-3.77h30.75c3,0,4.8,1.14,5.72,3.77l9.94,25.95c3.09,8,4.46,13.72,4.46,18.29v30.18c0,2.86-1.26,4.11-4.12,4.11H500.46c-3.08,0-4.45-1.25-4.45-4.11v-16H475.77v16C475.77,140.52,474.52,141.77,471.66,141.77Zm5.26-40.92h17.94l-5.37-17.37c-.57-1.38-1.26-2-2.17-2h-2.86c-.91,0-1.6.57-2.17,2Z"/><path d="M534,141.77c-2.86,0-4.12-1.25-4.12-4.11V124.28c0-2.85,1.26-4.11,4.12-4.11h30.75c1.94,0,3-1.49,3-3.31,0-2.63-1-3.66-3-3.89l-17.15-2.4c-10.74-1.6-17.72-6.18-17.72-19v-12c0-13,8.81-20.12,23.67-20.12h32c2.86,0,4.12,1.26,4.12,4.12v13.6c0,2.86-1.26,4.11-4.12,4.11H558.88c-2,0-3.09,1.38-3.09,3.43a3.36,3.36,0,0,0,3.09,3.66l17,2.29c10.75,1.6,17.83,6.17,17.83,19v12c0,13-8.91,20.11-23.66,20.11Z"/><path d="M629.07,141.77c-19.21,0-28.12-7.43-28.12-23.31V82.9c0-16,8.91-23.43,28.12-23.43H657c2.86,0,4.11,1.26,4.11,4.12V77.42c0,2.86-1.25,4.11-4.11,4.11H634c-4.8,0-7,1.83-7,5.72v27.2c0,3.78,2.17,5.49,7,5.49h23c2.86,0,4.11,1.26,4.11,4.12v13.6c0,2.86-1.25,4.11-4.11,4.11Z"/><path d="M674.11,141.77c-2.86,0-4.12-1.25-4.12-4.11V63.59c0-2.86,1.26-4.12,4.12-4.12h38.06c17.15,0,22.52,7.77,22.52,19.09v5.26c0,6.4-1.6,11-6.4,13,8.34.91,13.83,7,13.83,16.58v24.23c0,2.86-1.26,4.11-4.11,4.11H720.29c-2.86,0-4.12-1.25-4.12-4.11V120.17c0-3.43-1.14-4.92-4.34-4.92h-16v22.41c0,2.86-1.26,4.11-4.12,4.11Zm21.72-47.09h8.57c4,0,5-2.29,5-5.37V85.42c0-3.09-1-5.37-5-5.37h-8.57Z"/><path d="M749.1,137.66v-13.6c0-2.86,1.25-4.12,4.11-4.12h11.32V81.53H753.21c-2.86,0-4.11-1.25-4.11-4.11V63.59c0-2.86,1.25-4.12,4.11-4.12h48.7c2.86,0,4.11,1.26,4.11,4.12V77.42c0,2.86-1.25,4.11-4.11,4.11H790.82v38.41h11.09c2.86,0,4.11,1.26,4.11,4.12v13.6c0,2.86-1.25,4.11-4.11,4.11h-48.7C750.35,141.77,749.1,140.52,749.1,137.66Z"/><path d="M820.2,141.77c-2.86,0-4.11-1.25-4.11-4.11V63.59c0-2.86,1.25-4.12,4.11-4.12h35c20.8,0,27,9,27,22.29V96.39c0,13.26-6.18,22.29-27,22.29H842v19c0,2.86-1.25,4.11-4.11,4.11Zm21.61-43.66h10.28c4.46,0,5.37-2.63,5.37-5.6V86.45c0-3-.91-5.6-5.37-5.6H841.81Z"/><path d="M910.39,141.77c-2.86,0-4.11-1.25-4.11-4.11V81.53H889.47c-2.85,0-4.11-1.25-4.11-4.11V63.59c0-2.86,1.26-4.12,4.11-4.12h60.36c2.86,0,4.12,1.26,4.12,4.12V77.42c0,2.86-1.26,4.11-4.12,4.11H933v56.13c0,2.86-1.26,4.11-4.12,4.11Z"/></g></g></svg>