<svg xmlns="http://www.w3.org/2000/svg" viewBox="0 0 273.46 73.19"><defs><style>.cls-1{fill:#fff;}.cls-2{fill:#ff0080;}</style></defs><title>sonic-pi</title><g id="Lag_2" data-name="Lag 2"><g id="Layer_1" data-name="Layer 1"><path class="cls-1" d="M212.1,14.89l.73-.73s16.65,12.42,16.35,25.19c-.33,13.86-8.54,22-16.35,27.59l-.43-.57s12.72-10.78,11.43-27.94C223.83,38.43,223.93,25.6,212.1,14.89Z"/><path class="cls-1" d="M230.07,8l.84-.88S250,22,249.64,37.3c-.38,16.62-9.78,26.36-18.73,33.07l-.5-.68S245,56.78,243.51,36.2C243.51,36.2,243.62,20.82,230.07,8Z"/><path class="cls-1" d="M249.64,1l1-1s23.21,17.23,22.79,34.94c-.45,19.22-11.9,30.48-22.79,38.25l-.6-.79S267.79,57.46,266,33.67C266,33.67,266.13,15.88,249.64,1Z"/><path class="cls-2" d="M173.85,29l1.21-2.64h27l2-.57-1.74,3-5.36.25-3.62,20s-.32,2.11.41,2.56,3-.57,4.87-3.09l.89,1.42a26.1,26.1,0,0,1-4.14,4.39c-2.11,1.62-4.38,2.68-6.39,2.11s-1-4.51-1-4.51l4-22.77H183l-4.71,26.79h-4.91l4.71-26.79Z"/><path class="cls-1" d="M82.64,47.55c0-5.33-10-5.42-10-12.31,0-5.79,4.79-8.82,10-8.82a14.36,14.36,0,0,1,6.39,1.39L88,31.34A13.23,13.23,0,0,0,82.39,30c-3.19,0-5.29,1.84-5.29,4.32,0,5.13,10,4.79,10,12.44,0,5.67-4.49,9.15-10.58,9.15a15.26,15.26,0,0,1-7.27-1.67l1.14-3.53A14.78,14.78,0,0,0,77,52.34C80,52.34,82.64,50.7,82.64,47.55Z"/><path class="cls-1" d="M110,43.82C109.73,50.33,105.49,56,98.69,56c-5.63,0-8.36-4-8-9.29C91,40,95.24,34.49,102,34.49,107.84,34.49,110.36,38.73,110,43.82ZM95,46.63c-.25,3.65,1.22,6,4.24,6,3.74,0,6.22-4.37,6.47-8.86.21-3.16-.84-6-4.2-6C97.55,37.77,95.24,42.22,95,46.63Z"/><path class="cls-1" d="M132.12,41.67l-2.31,13.86h-4.24l2-11.71c.42-2.4.84-5.89-2.52-5.89-2.31,0-6,3.87-7.1,10.25l-1.22,7.35h-4.2L114.73,43c.5-2.81.88-5.5,1.22-8l3.86-.13-.76,5.59h.09c1.85-3.32,4.83-5.92,7.94-5.92C131.4,34.49,132.79,37.72,132.12,41.67Z"/><path class="cls-1" d="M143.2,34.82l-3.57,20.71h-4.2L139,35Zm-.75-9a2.17,2.17,0,0,1,2.14,2.26,2.8,2.8,0,0,1-2.69,2.82,2.15,2.15,0,0,1-2.18-2.23A2.86,2.86,0,0,1,142.45,25.84Z"/><path class="cls-1" d="M150.09,47.34c0,3.49,1.93,5.25,5,5.25a13.46,13.46,0,0,0,5.17-1.09l.29,3.24a18.47,18.47,0,0,1-6.6,1.21c-5.2,0-8.14-3.1-8.19-8,0-7.52,5-13.4,12.56-13.4a12.56,12.56,0,0,1,4.88.88l-.93,3.32a10.69,10.69,0,0,0-4.07-.84C153.37,37.89,150.09,42.13,150.09,47.34Z"/><path class="cls-1" d="M61.36,14.89l-.73-.73S44,26.58,44.28,39.35c.33,13.86,8.53,22,16.35,27.59l.43-.57S48.34,55.59,49.62,38.43C49.62,38.43,49.53,25.6,61.36,14.89Z"/><path class="cls-1" d="M43.39,8l-.84-.88S23.48,22,23.82,37.3c.38,16.62,9.78,26.36,18.73,33.07l.5-.68S28.47,56.78,29.94,36.2C29.94,36.2,29.84,20.82,43.39,8Z"/><path class="cls-1" d="M23.82,1l-1-1S-.41,17.23,0,34.94C.46,54.16,11.9,65.42,22.8,73.19l.6-.79S5.67,57.46,7.46,33.67C7.46,33.67,7.33,15.88,23.82,1Z"/></g></g></svg>