<?xml version="1.0" encoding="UTF-8" standalone="no"?>
<!DOCTYPE svg PUBLIC "-//W3C//DTD SVG 1.1//EN" "http://www.w3.org/Graphics/SVG/1.1/DTD/svg11.dtd">
<svg width="100%" height="100%" viewBox="0 0 351 398" version="1.1" xmlns="http://www.w3.org/2000/svg" xmlns:xlink="http://www.w3.org/1999/xlink" xml:space="preserve" xmlns:serif="http://www.serif.com/" style="fill-rule:evenodd;clip-rule:evenodd;stroke-linecap:round;stroke-linejoin:round;stroke-miterlimit:1.5;">
    <g transform="matrix(1,0,0,1,-163.942,-49.4395)">
        <g transform="matrix(0.993333,0.115278,-0.115278,0.993333,-235.873,-74.0965)">
            <path d="M606.783,125.02L561.439,70.122" style="fill:none;stroke:black;stroke-width:6.59px;"/>
        </g>
        <g transform="matrix(0.993333,0.115278,-0.115278,0.993333,-235.873,-74.0965)">
            <path d="M606.783,125.02L632.046,54.333" style="fill:none;stroke:black;stroke-width:6.59px;"/>
        </g>
        <g transform="matrix(-0.993333,-0.115278,0.115278,-0.993333,856.101,886.071)">
            <path d="M588.597,379.754L620.176,489.293L557.018,489.293L588.597,379.754Z" style="fill:rgb(61,97,111);"/>
        </g>
        <g transform="matrix(0.993333,0.115278,-0.115278,0.993333,-241.254,-75.4264)">
            <path d="M724.781,345.954C724.781,342.278 721.796,339.293 718.12,339.293L506.442,339.293C502.766,339.293 499.781,342.278 499.781,345.954L499.781,359.277C499.781,362.953 502.766,365.938 506.442,365.938L718.12,365.938C721.796,365.938 724.781,362.953 724.781,359.277L724.781,345.954Z" style="fill:rgb(74,127,147);"/>
        </g>
        <g transform="matrix(0.993333,0.115278,-0.115278,0.993333,-18.337,-65.0844)">
            <path d="M556.395,174.731C556.395,159.855 544.317,147.777 529.44,147.777L249.875,147.777C234.999,147.777 222.921,159.855 222.921,174.731L222.921,338.086C222.921,352.962 234.999,365.04 249.875,365.04L529.44,365.04C544.317,365.04 556.395,352.962 556.395,338.086L556.395,174.731Z" style="fill:rgb(84,146,169);"/>
        </g>
        <g transform="matrix(0.993333,0.115278,-0.115278,0.993333,191.751,-28.9707)">
            <ellipse cx="176.808" cy="136.122" rx="14.526" ry="11.053" style="fill:rgb(84,146,169);"/>
        </g>
        <g transform="matrix(4.73422,0,0,4.73422,539.391,147.489)">
            <g transform="matrix(0.993333,0.115278,-0.115278,0.993333,-54.0664,-3.65249)">
                <path d="M28.47,0.422C28.47,0.189 28.281,0 28.048,0L0.422,0C0.189,0 0,0.189 0,0.422L0,7.778C0,8.011 0.189,8.2 0.422,8.2L28.048,8.2C28.281,8.2 28.47,8.011 28.47,7.778L28.47,0.422Z" style="fill:rgb(171,171,171);"/>
                <path d="M26.47,0L14.33,0L14.33,8.2L26.47,8.2C27.567,8.2 28.47,7.297 28.47,6.2L28.47,2C28.47,0.903 27.567,0 26.47,0Z" style="fill:rgb(154,154,154);"/>
                <path d="M27.56,1.211C27.56,1.095 27.465,1 27.349,1L1.301,1C1.185,1 1.09,1.095 1.09,1.211L1.09,6.989C1.09,7.105 1.185,7.2 1.301,7.2L27.349,7.2C27.465,7.2 27.56,7.105 27.56,6.989L27.56,1.211Z" style="fill:rgb(24,24,24);"/>
                <path d="M2,1.2L2.2,1.2L2.2,2.2L1.2,2.2L1.2,2C1.2,1.561 1.561,1.2 2,1.2Z" style="fill:rgb(40,40,40);"/>
                <rect x="2.43" y="1.2" width="1" height="1" style="fill:rgb(40,40,40);"/>
                <rect x="3.63" y="1.2" width="1" height="1" style="fill:rgb(40,40,40);"/>
                <rect x="4.83" y="1.2" width="1" height="1" style="fill:rgb(40,40,40);"/>
                <rect x="6.03" y="1.2" width="1" height="1" style="fill:rgb(40,40,40);"/>
                <rect x="7.23" y="1.2" width="1" height="1" style="fill:rgb(40,40,40);"/>
                <rect x="8.43" y="1.2" width="1" height="1" style="fill:rgb(40,40,40);"/>
                <rect x="9.63" y="1.2" width="1" height="1" style="fill:rgb(40,40,40);"/>
                <rect x="10.83" y="1.2" width="1" height="1" style="fill:rgb(40,40,40);"/>
                <rect x="12.03" y="1.2" width="1" height="1" style="fill:rgb(40,40,40);"/>
                <rect x="13.23" y="1.2" width="1" height="1" style="fill:rgb(40,40,40);"/>
                <rect x="14.43" y="1.2" width="1" height="1" style="fill:rgb(40,40,40);"/>
                <rect x="15.63" y="1.2" width="1" height="1" style="fill:rgb(40,40,40);"/>
                <rect x="16.83" y="1.2" width="1" height="1" style="fill:rgb(40,40,40);"/>
                <rect x="18.03" y="1.2" width="1" height="1" style="fill:rgb(40,40,40);"/>
                <rect x="19.23" y="1.2" width="1" height="1" style="fill:rgb(40,40,40);"/>
                <rect x="20.43" y="1.2" width="1" height="1" style="fill:rgb(40,40,40);"/>
                <rect x="21.63" y="1.2" width="1" height="1" style="fill:rgb(40,40,40);"/>
                <rect x="22.83" y="1.2" width="1" height="1" style="fill:rgb(40,40,40);"/>
                <rect x="24.03" y="1.2" width="1" height="1" style="fill:rgb(40,40,40);"/>
                <rect x="25.23" y="1.2" width="1" height="1" style="fill:rgb(40,40,40);"/>
                <path d="M26.43,1.2L26.63,1.2C27.069,1.2 27.43,1.561 27.43,2L27.43,2.2L26.43,2.2L26.43,1.2Z" style="fill:rgb(40,40,40);"/>
                <rect x="1.22" y="2.4" width="1" height="1" style="fill:rgb(40,40,40);"/>
                <rect x="2.42" y="2.4" width="1" height="1" style="fill:rgb(40,40,40);"/>
                <rect x="3.62" y="2.4" width="1" height="1" style="fill:rgb(40,40,40);"/>
                <rect x="4.82" y="2.4" width="1" height="1" style="fill:rgb(40,40,40);"/>
                <rect x="6.02" y="2.4" width="1" height="1" style="fill:rgb(40,40,40);"/>
                <rect x="7.22" y="2.4" width="1" height="1" style="fill:rgb(40,40,40);"/>
                <rect x="9.62" y="2.4" width="1" height="1" style="fill:rgb(40,40,40);"/>
                <rect x="10.82" y="2.4" width="1" height="1" style="fill:rgb(40,40,40);"/>
                <rect x="12.02" y="2.4" width="1" height="1" style="fill:rgb(40,40,40);"/>
                <rect x="13.22" y="2.4" width="1" height="1" style="fill:rgb(40,40,40);"/>
                <rect x="14.42" y="2.4" width="1" height="1" style="fill:rgb(40,40,40);"/>
                <rect x="15.62" y="2.4" width="1" height="1" style="fill:rgb(40,40,40);"/>
                <rect x="16.82" y="2.4" width="1" height="1" style="fill:rgb(40,40,40);"/>
                <rect x="18.02" y="2.4" width="1" height="1" style="fill:rgb(40,40,40);"/>
                <rect x="20.42" y="2.4" width="1" height="1" style="fill:rgb(40,40,40);"/>
                <rect x="21.62" y="2.4" width="1" height="1" style="fill:rgb(40,40,40);"/>
                <rect x="22.82" y="2.4" width="1" height="1" style="fill:rgb(40,40,40);"/>
                <rect x="24.02" y="2.4" width="1" height="1" style="fill:rgb(40,40,40);"/>
                <rect x="25.22" y="2.4" width="1" height="1" style="fill:rgb(40,40,40);"/>
                <rect x="26.42" y="2.4" width="1" height="1" style="fill:rgb(40,40,40);"/>
                <rect x="1.24" y="3.6" width="1" height="1" style="fill:rgb(40,40,40);"/>
                <rect x="2.44" y="3.6" width="1" height="1" style="fill:rgb(40,40,40);"/>
                <rect x="3.64" y="3.6" width="1" height="1" style="fill:rgb(40,40,40);"/>
                <rect x="4.84" y="3.6" width="1" height="1" style="fill:rgb(40,40,40);"/>
                <rect x="6.04" y="3.6" width="1" height="1" style="fill:rgb(40,40,40);"/>
                <rect x="8.44" y="3.6" width="1" height="1" style="fill:rgb(40,40,40);"/>
                <rect x="10.84" y="3.6" width="1" height="1" style="fill:rgb(40,40,40);"/>
                <rect x="12.04" y="3.6" width="1" height="1" style="fill:rgb(40,40,40);"/>
                <rect x="13.24" y="3.6" width="1" height="1" style="fill:rgb(40,40,40);"/>
                <rect x="14.44" y="3.6" width="1" height="1" style="fill:rgb(40,40,40);"/>
                <rect x="15.64" y="3.6" width="1" height="1" style="fill:rgb(40,40,40);"/>
                <rect x="16.84" y="3.6" width="1" height="1" style="fill:rgb(40,40,40);"/>
                <rect x="19.24" y="3.6" width="1" height="1" style="fill:rgb(40,40,40);"/>
                <rect x="21.64" y="3.6" width="1" height="1" style="fill:rgb(40,40,40);"/>
                <rect x="22.84" y="3.6" width="1" height="1" style="fill:rgb(40,40,40);"/>
                <rect x="24.04" y="3.6" width="1" height="1" style="fill:rgb(40,40,40);"/>
                <rect x="25.24" y="3.6" width="1" height="1" style="fill:rgb(40,40,40);"/>
                <rect x="26.44" y="3.6" width="1" height="1" style="fill:rgb(40,40,40);"/>
                <rect x="1.22" y="4.8" width="1" height="1" style="fill:rgb(40,40,40);"/>
                <rect x="2.42" y="4.8" width="1" height="1" style="fill:rgb(40,40,40);"/>
                <rect x="3.62" y="4.8" width="1" height="1" style="fill:rgb(40,40,40);"/>
                <rect x="4.82" y="4.8" width="1" height="1" style="fill:rgb(40,40,40);"/>
                <rect x="7.22" y="4.8" width="1" height="1" style="fill:rgb(40,40,40);"/>
                <rect x="8.42" y="4.8" width="1" height="1" style="fill:rgb(40,40,40);"/>
                <rect x="9.62" y="4.8" width="1" height="1" style="fill:rgb(40,40,40);"/>
                <rect x="12.02" y="4.8" width="1" height="1" style="fill:rgb(40,40,40);"/>
                <rect x="13.22" y="4.8" width="1" height="1" style="fill:rgb(40,40,40);"/>
                <rect x="14.42" y="4.8" width="1" height="1" style="fill:rgb(40,40,40);"/>
                <rect x="15.62" y="4.8" width="1" height="1" style="fill:rgb(40,40,40);"/>
                <rect x="18.02" y="4.8" width="1" height="1" style="fill:rgb(40,40,40);"/>
                <rect x="19.22" y="4.8" width="1" height="1" style="fill:rgb(40,40,40);"/>
                <rect x="20.42" y="4.8" width="1" height="1" style="fill:rgb(40,40,40);"/>
                <rect x="22.82" y="4.8" width="1" height="1" style="fill:rgb(40,40,40);"/>
                <rect x="24.02" y="4.8" width="1" height="1" style="fill:rgb(40,40,40);"/>
                <rect x="25.22" y="4.8" width="1" height="1" style="fill:rgb(40,40,40);"/>
                <rect x="26.42" y="4.8" width="1" height="1" style="fill:rgb(40,40,40);"/>
                <path d="M1.2,6L2.23,6L2.23,7L2,7C1.561,7 1.2,6.639 1.2,6.2L1.2,6Z" style="fill:rgb(40,40,40);"/>
                <rect x="2.43" y="6" width="1" height="1" style="fill:rgb(40,40,40);"/>
                <rect x="3.63" y="6" width="1" height="1" style="fill:rgb(40,40,40);"/>
                <rect x="4.83" y="6" width="1" height="1" style="fill:rgb(40,40,40);"/>
                <rect x="6.03" y="6" width="1" height="1" style="fill:rgb(40,40,40);"/>
                <rect x="7.23" y="6" width="1" height="1" style="fill:rgb(40,40,40);"/>
                <rect x="8.43" y="6" width="1" height="1" style="fill:rgb(40,40,40);"/>
                <rect x="9.63" y="6" width="1" height="1" style="fill:rgb(40,40,40);"/>
                <rect x="10.83" y="6" width="1" height="1" style="fill:rgb(40,40,40);"/>
                <rect x="12.03" y="6" width="1" height="1" style="fill:rgb(40,40,40);"/>
                <rect x="13.23" y="6" width="1" height="1" style="fill:rgb(40,40,40);"/>
                <rect x="14.43" y="6" width="1" height="1" style="fill:rgb(40,40,40);"/>
                <rect x="15.63" y="6" width="1" height="1" style="fill:rgb(40,40,40);"/>
                <rect x="16.83" y="6" width="1" height="1" style="fill:rgb(40,40,40);"/>
                <rect x="18.03" y="6" width="1" height="1" style="fill:rgb(40,40,40);"/>
                <rect x="19.23" y="6" width="1" height="1" style="fill:rgb(40,40,40);"/>
                <rect x="20.43" y="6" width="1" height="1" style="fill:rgb(40,40,40);"/>
                <rect x="21.63" y="6" width="1" height="1" style="fill:rgb(40,40,40);"/>
                <rect x="22.83" y="6" width="1" height="1" style="fill:rgb(40,40,40);"/>
                <rect x="24.03" y="6" width="1" height="1" style="fill:rgb(40,40,40);"/>
                <rect x="25.23" y="6" width="1" height="1" style="fill:rgb(40,40,40);"/>
                <path d="M26.43,6L27.43,6L27.43,6.2C27.43,6.639 27.069,7 26.63,7L26.43,7L26.43,6Z" style="fill:rgb(40,40,40);"/>
                <rect x="8.42" y="2.4" width="1" height="1" style="fill:rgb(242,13,13);"/>
                <rect x="19.22" y="2.4" width="1" height="1" style="fill:rgb(242,13,13);"/>
                <rect x="7.24" y="3.6" width="1" height="1" style="fill:rgb(242,13,13);"/>
                <rect x="9.64" y="3.6" width="1" height="1" style="fill:rgb(242,13,13);"/>
                <rect x="18.04" y="3.6" width="1" height="1" style="fill:rgb(242,13,13);"/>
                <rect x="20.44" y="3.6" width="1" height="1" style="fill:rgb(242,13,13);"/>
                <rect x="6.02" y="4.8" width="1" height="1" style="fill:rgb(242,13,13);"/>
                <rect x="10.82" y="4.8" width="1" height="1" style="fill:rgb(242,13,13);"/>
                <rect x="16.82" y="4.8" width="1" height="1" style="fill:rgb(242,13,13);"/>
                <rect x="21.62" y="4.8" width="1" height="1" style="fill:rgb(242,13,13);"/>
                <rect x="5.93" y="4.72" width="1.17" height="1.17" style="fill:rgb(242,13,13);fill-opacity:0.15;"/>
                <rect x="5.85" y="4.64" width="1.33" height="1.33" style="fill:rgb(242,13,13);fill-opacity:0.15;"/>
                <rect x="7.15" y="3.51" width="1.17" height="1.17" style="fill:rgb(242,13,13);fill-opacity:0.15;"/>
                <rect x="7.07" y="3.43" width="1.33" height="1.33" style="fill:rgb(242,13,13);fill-opacity:0.15;"/>
                <rect x="8.33" y="2.32" width="1.17" height="1.17" style="fill:rgb(242,13,13);fill-opacity:0.15;"/>
                <rect x="8.25" y="2.24" width="1.33" height="1.33" style="fill:rgb(242,13,13);fill-opacity:0.15;"/>
                <rect x="9.55" y="3.52" width="1.17" height="1.17" style="fill:rgb(242,13,13);fill-opacity:0.15;"/>
                <rect x="9.47" y="3.44" width="1.33" height="1.33" style="fill:rgb(242,13,13);fill-opacity:0.15;"/>
                <rect x="10.73" y="4.72" width="1.17" height="1.17" style="fill:rgb(242,13,13);fill-opacity:0.15;"/>
                <rect x="10.65" y="4.64" width="1.33" height="1.33" style="fill:rgb(242,13,13);fill-opacity:0.15;"/>
                <rect x="16.75" y="4.72" width="1.17" height="1.17" style="fill:rgb(242,13,13);fill-opacity:0.15;"/>
                <rect x="16.67" y="4.64" width="1.33" height="1.33" style="fill:rgb(242,13,13);fill-opacity:0.15;"/>
                <rect x="17.97" y="3.52" width="1.17" height="1.17" style="fill:rgb(242,13,13);fill-opacity:0.15;"/>
                <rect x="17.89" y="3.44" width="1.33" height="1.33" style="fill:rgb(242,13,13);fill-opacity:0.15;"/>
                <rect x="19.15" y="2.32" width="1.17" height="1.17" style="fill:rgb(242,13,13);fill-opacity:0.15;"/>
                <rect x="19.07" y="2.24" width="1.33" height="1.33" style="fill:rgb(242,13,13);fill-opacity:0.15;"/>
                <rect x="20.37" y="3.52" width="1.17" height="1.17" style="fill:rgb(242,13,13);fill-opacity:0.15;"/>
                <rect x="20.29" y="3.44" width="1.33" height="1.33" style="fill:rgb(242,13,13);fill-opacity:0.15;"/>
                <rect x="21.55" y="4.72" width="1.17" height="1.17" style="fill:rgb(242,13,13);fill-opacity:0.15;"/>
                <rect x="21.47" y="4.64" width="1.33" height="1.33" style="fill:rgb(242,13,13);fill-opacity:0.15;"/>
            </g>
        </g>
        <g transform="matrix(0.993333,0.115278,-0.115278,0.993333,-233.403,-81.4396)">
            <path d="M701.096,219.314C701.096,216.339 698.681,213.923 695.705,213.923L514.645,213.923C511.67,213.923 509.254,216.339 509.254,219.314L509.254,321.427C509.254,324.402 511.67,326.818 514.645,326.818L695.705,326.818C698.681,326.818 701.096,324.402 701.096,321.427L701.096,219.314Z" style="fill:rgb(40,40,40);stroke:rgb(171,171,171);stroke-width:4.51px;"/>
        </g>
        <g transform="matrix(0.943667,0.109514,-0.119037,1.02573,-60.2758,-74.9074)">
            <ellipse cx="316.262" cy="230.601" rx="15.789" ry="14.526" style="fill:rgb(40,40,40);stroke:rgb(171,171,171);stroke-width:4.55px;"/>
        </g>
        <g transform="matrix(0.943667,0.109514,-0.119037,1.02573,201.964,-44.4742)">
            <ellipse cx="316.262" cy="230.601" rx="15.789" ry="14.526" style="fill:rgb(40,40,40);stroke:rgb(171,171,171);stroke-width:4.55px;"/>
        </g>
        <g transform="matrix(0.943667,0.109514,-0.119037,1.02573,-65.1561,-32.8541)">
            <ellipse cx="316.262" cy="230.601" rx="15.789" ry="14.526" style="fill:rgb(40,40,40);stroke:rgb(171,171,171);stroke-width:4.55px;"/>
        </g>
        <g transform="matrix(0.943667,0.109514,-0.119037,1.02573,197.084,-2.42089)">
            <ellipse cx="316.262" cy="230.601" rx="15.789" ry="14.526" style="fill:rgb(40,40,40);stroke:rgb(171,171,171);stroke-width:4.55px;"/>
        </g>
        <g transform="matrix(0.943667,0.109514,-0.119037,1.02573,-70.1084,9.81945)">
            <ellipse cx="316.262" cy="230.601" rx="15.789" ry="14.526" style="fill:rgb(40,40,40);stroke:rgb(171,171,171);stroke-width:4.55px;"/>
        </g>
        <g transform="matrix(0.943667,0.109514,-0.119037,1.02573,192.131,40.2527)">
            <ellipse cx="316.262" cy="230.601" rx="15.789" ry="14.526" style="fill:rgb(40,40,40);stroke:rgb(171,171,171);stroke-width:4.55px;"/>
        </g>
        <g transform="matrix(0.789139,0.0915805,-0.0915805,0.789139,-138.017,-19.4049)">
            <text x="524.225px" y="291.789px" style="font-family:'OCRAExtended', 'OCR A Extended', monospace;font-size:59.974px;fill:rgb(255,0,0);">Hjælp?</text>
        </g>
        <g transform="matrix(0.993333,0.115278,-0.115278,0.993333,-83.0021,-72.5054)">
            <path d="M428.665,392.866C422.709,394.529 419.063,396.761 419.063,399.213C419.063,404.348 435.053,408.517 454.747,408.517C474.442,408.517 490.432,404.348 490.432,399.213C490.432,396.761 486.786,394.529 480.83,392.866C493.103,394.888 501.168,398.295 501.168,402.154C501.168,408.351 480.368,413.383 454.747,413.383C429.127,413.383 408.326,408.351 408.326,402.154C408.326,398.295 416.392,394.888 428.665,392.866Z" style="fill:rgb(31,255,0);"/>
        </g>
        <g transform="matrix(0.470919,0.0546507,-0.0525482,0.452802,125.157,208.464)">
            <path d="M428.665,392.866C422.709,394.529 419.063,396.761 419.063,399.213C419.063,404.348 435.053,408.517 454.747,408.517C474.442,408.517 490.432,404.348 490.432,399.213C490.432,396.761 486.786,394.529 480.83,392.866C493.103,394.888 501.168,398.295 501.168,402.154C501.168,408.351 480.368,413.383 454.747,413.383C429.127,413.383 408.326,408.351 408.326,402.154C408.326,398.295 416.392,394.888 428.665,392.866Z" style="fill:rgb(31,255,0);"/>
        </g>
        <g transform="matrix(0.326992,0.0379478,-0.0321987,0.277452,179.156,314.738)">
            <path d="M428.665,392.866C422.709,394.529 419.063,396.761 419.063,399.213C419.063,404.348 435.053,408.517 454.747,408.517C474.442,408.517 490.432,404.348 490.432,399.213C490.432,396.761 486.786,394.529 480.83,392.866C493.103,394.888 501.168,398.295 501.168,402.154C501.168,408.351 480.368,413.383 454.747,413.383C429.127,413.383 408.326,408.351 408.326,402.154C408.326,398.295 416.392,394.888 428.665,392.866Z" style="fill:rgb(31,255,0);"/>
        </g>
    </g>
</svg>
