<svg xmlns="http://www.w3.org/2000/svg" width="105.248" height="35.766" viewBox="0 0 105.248 35.766"><g transform="translate(0 0)"><path d="M10.249,4.069l1.223-2.441A7.247,7.247,0,0,0,6.12.034,7.634,7.634,0,0,0,.9,2.578,5.349,5.349,0,0,0,.556,6.951c.45,1.977,3.618,3.54,4.677,3.827,1.68.456,3.149,1.736,2.986,3.5.016,1.268-.705,2.837-3.26,2.517A16.545,16.545,0,0,1,.824,15.44L.02,17.92c-.3.121,2.906,1.154,4.286,1.323,1.82.322,4.984.041,5.972-1.248a7.81,7.81,0,0,0,1.669-4.456A5.7,5.7,0,0,0,9.986,9.586,6.737,6.737,0,0,0,8.081,8.372c-.859-.377-1.415-.343-2.455-.834C5.09,7.2,3.6,6.5,3.875,4.894,4.2,2.691,6.031,2.853,7.05,2.81A4.576,4.576,0,0,1,10.249,4.069Z" transform="translate(0 8.669)" fill="#fff" fill-rule="evenodd"/><path d="M3.326.771,7.047,0V4.344H11.9V7.261l-4.691.014V18.441c0,1.475.6,2.86,2.386,2.629,1-.047,1.954-.2,2.236-.233l.049,2.623a9.021,9.021,0,0,1-1.668.281,10.053,10.053,0,0,1-4.452-.48s-1.5-.426-2.272-2.878L3.35,7.3H0V4.357H3.346Z" transform="translate(12.758 4.246)" fill="#fff" fill-rule="evenodd"/><path d="M0,0H3.319V28.046L0,28.032Z" transform="translate(101.928 0)" fill="#fff" fill-rule="evenodd"/><path d="M18.288,0,10.474,20.13a13.439,13.439,0,0,1-6.426,6.837,9.171,9.171,0,0,1-2.505.155,25.873,25.873,0,0,0-.014-2.732,2.481,2.481,0,0,0,1.491-.547c1.1-1.037,2.967-2.089,4-4.464.661-1.184-.014-1.986-.34-2.888L0,0H3.793L9.4,13.831,14.155,0Z" transform="translate(81.979 8.614)" fill="#fff" fill-rule="evenodd"/><path d="M17.477,3.119l-.792,2.722a13.912,13.912,0,0,0-2.515-.87,10.842,10.842,0,0,0-3.6.107A6.615,6.615,0,0,0,6.986,8c-2,2.918-.161,6.911-.13,7.008A6.844,6.844,0,0,0,9.5,17.865a8.513,8.513,0,0,0,4.3.942,7.406,7.406,0,0,0,2.833-.965l.762,2.793a8.727,8.727,0,0,1-3.963.861,25,25,0,0,1-1.2,2.783l-.55-2.762c-1.042-.027-3.564-.41-3.788-.7,0,0-1.5,3.152-1.511,2.5l-.07-3.1a8.267,8.267,0,0,1-2.024-2.062l-2.573.72,1.661-2.1a24.575,24.575,0,0,1-.621-2.882L0,12.748l2.618-.735c.019-1.144-.285-2.07.184-3.128L.3,6.753l3.132.141A11.166,11.166,0,0,1,5.3,4.465L4.324,1.9,6.766,3.56A9.22,9.22,0,0,1,9.922,2.3L10.7,0l.673,2.111c2.248-.015,4.6.051,6.1,1.009Z" transform="translate(63.476 6.617)" fill="#fff" fill-rule="evenodd"/><path d="M0,0H3.323l-.04,2.921A5.078,5.078,0,0,1,6.205.521,9.61,9.61,0,0,1,11.65.4a8.657,8.657,0,0,1,2.5,1.61,4.347,4.347,0,0,1,1.382,2.915V19.433l-3.763-.01L11.827,6.5A4.1,4.1,0,0,0,10.2,3.866a4.181,4.181,0,0,0-4.369-.134A3.59,3.59,0,0,0,3.584,7.141l.072,12.282H0Z" transform="translate(46.021 8.614)" fill="#fff" fill-rule="evenodd"/><path d="M8.584,0A9.224,9.224,0,0,0,4.605,1.081,9.076,9.076,0,0,0,.927,5.17,13.018,13.018,0,0,0,0,10.729a10.231,10.231,0,0,0,2.227,5.979A11.571,11.571,0,0,0,6.252,19.14c1.767.65,3.648.258,5.6.171a8.464,8.464,0,0,0,4.076-1.245l-1.236-2.522a9.593,9.593,0,0,1-7.512.88A6.587,6.587,0,0,1,3.87,10.536l12.739.056a11,11,0,0,0,.029-4.219c-.376-1.587-.4-3.329-3.539-5.237A8.891,8.891,0,0,0,8.584,0Zm.776,2.74c2.855-.021,4.431,2.614,4.471,5.014l-9.9-.113C4.082,4.915,5.507,2.787,9.359,2.743Z" transform="translate(25.795 8.795)" fill="#fff" fill-rule="evenodd"/></g></svg>