<?xml version="1.0" standalone="no"?>
<!DOCTYPE svg PUBLIC "-//W3C//DTD SVG 20010904//EN"
 "http://www.w3.org/TR/2001/REC-SVG-20010904/DTD/svg10.dtd">
<svg version="1.0" xmlns="http://www.w3.org/2000/svg"
 width="500.000000pt" height="500.000000pt" viewBox="0 0 500.000000 500.000000"
 preserveAspectRatio="xMidYMid meet">
<metadata>
Created by potrace 1.11, written by Peter Selinger 2001-2013
</metadata>
<g transform="translate(0.000000,500.000000) scale(0.100000,-0.100000)"
fill="#000000" stroke="none">
<path d="M0 2500 l0 -2500 2500 0 2500 0 0 2500 0 2500 -2500 0 -2500 0 0
-2500z m1915 1225 c556 -8 1231 -17 1500 -20 270 -3 568 -8 663 -11 l172 -6 0
-989 0 -989 -215 0 -215 0 0 -204 0 -203 -31 -7 c-17 -3 -107 -6 -200 -6
l-169 0 0 68 c0 37 -3 131 -7 210 l-6 142 -204 0 -203 0 0 -210 0 -210 -205 0
-205 0 0 205 0 205 -205 0 -205 0 0 -205 0 -205 -205 0 -205 0 0 205 c0 204 0
205 -22 209 -13 3 -240 15 -505 27 l-483 23 0 993 0 993 73 0 c39 0 527 -7
1082 -15z"/>
<path d="M1796 2704 c-4 -114 -6 -208 -4 -209 2 -2 95 -4 208 -6 l205 -4 3
206 2 206 -127 6 c-71 4 -162 7 -204 7 l-76 0 -7 -206z"/>
<path d="M3444 2871 c-2 -2 -4 -98 -4 -213 l0 -208 204 0 204 0 7 143 c4 78 5
171 3 207 l-3 65 -203 5 c-112 3 -206 3 -208 1z"/>
<path d="M2610 2271 l0 -211 93 0 c50 0 142 -3 203 -6 l111 -7 7 207 c4 114 6
209 4 211 -1 2 -96 6 -210 10 l-208 8 0 -212z"/>
</g>
</svg>
